<?xml version="1.0" standalone="no"?>
<!DOCTYPE svg PUBLIC "-//W3C//DTD SVG 20010904//EN"
 "http://www.w3.org/TR/2001/REC-SVG-20010904/DTD/svg10.dtd">
<svg version="1.0" xmlns="http://www.w3.org/2000/svg"
 width="285.000000pt" height="359.000000pt" viewBox="0 0 285.000000 359.000000"
 preserveAspectRatio="xMidYMid meet">

<g transform="translate(0.000000,359.000000) scale(0.100000,-0.100000)"
fill="#000000" stroke="none">
<path d="M1310 3544 c-177 -20 -355 -69 -468 -129 -26 -14 -51 -25 -55 -25
-23 0 -178 -105 -271 -183 -60 -51 -181 -176 -181 -187 0 -4 -15 -24 -32 -44
-18 -19 -33 -39 -33 -44 0 -5 -11 -21 -24 -36 -45 -53 -152 -288 -140 -307 3
-5 1 -9 -4 -9 -11 0 -38 -103 -58 -220 -15 -95 -18 -329 -4 -405 5 -27 12 -70
14 -94 3 -24 11 -48 18 -52 7 -4 10 -11 6 -14 -12 -12 33 -144 92 -270 30 -64
51 -97 146 -232 84 -119 264 -275 423 -367 223 -129 517 -199 766 -182 298 21
559 120 795 301 156 120 322 330 408 515 38 84 91 260 107 355 19 118 19 319
0 450 -67 477 -408 900 -870 1083 -106 42 -188 64 -255 70 -30 2 -60 8 -66 13
-12 10 -255 20 -314 13z m271 -95 c354 -46 645 -208 872 -488 282 -345 363
-809 217 -1242 -91 -270 -272 -504 -515 -666 -170 -114 -363 -185 -574 -212
-298 -39 -626 41 -889 216 -99 66 -270 231 -335 325 -184 263 -272 596 -238
898 28 244 133 500 277 680 50 63 187 194 258 246 252 189 615 284 927 243z"/>
<path d="M1287 3322 l-127 -77 0 -154 c0 -142 1 -153 18 -147 9 4 65 25 124
49 l108 42 0 134 c0 74 2 132 5 130 4 -5 45 -247 45 -270 0 -6 -8 -8 -20 -4
-18 6 -20 2 -20 -38 0 -39 3 -46 24 -51 21 -5 24 -14 35 -98 18 -142 28 -238
24 -241 -1 -2 -22 -1 -45 2 l-43 6 -3 168 c-1 92 -4 167 -5 167 -2 0 -57 -20
-123 -44 l-119 -44 -3 -146 c-2 -113 0 -146 10 -146 7 0 62 11 123 24 60 14
113 22 117 20 5 -3 8 -22 8 -43 0 -34 3 -38 43 -52 25 -10 47 -25 54 -41 25
-50 58 -328 40 -328 -6 0 -41 14 -79 31 l-68 32 0 153 c0 140 -2 154 -17 153
-10 0 -65 -8 -123 -17 l-105 -17 -3 -142 -3 -141 128 1 128 2 3 -42 3 -41 79
-32 c44 -18 82 -39 84 -48 3 -10 17 -84 31 -165 13 -82 27 -152 30 -158 14
-22 -111 4 -177 37 l-48 24 0 -40 c0 -48 5 -47 -148 -16 l-113 23 3 -149 3
-150 119 -44 c66 -24 121 -44 123 -44 2 0 3 74 3 165 0 91 2 165 4 165 3 0 25
-11 49 -24 25 -13 78 -31 119 -41 40 -10 77 -21 81 -25 8 -7 97 -306 97 -327
0 -32 -154 -6 -250 42 -25 12 -55 26 -67 29 -21 7 -23 4 -23 -33 0 -23 -5 -41
-11 -41 -6 0 -62 20 -126 45 -63 25 -117 45 -119 45 -3 0 -3 -70 -2 -156 l3
-156 120 -74 120 -73 3 179 c1 99 4 180 6 180 2 0 34 -14 72 -31 94 -43 115
-49 223 -59 54 -6 98 -15 102 -22 8 -12 -28 -37 -261 -175 l-115 -68 50 -3
c67 -5 189 14 294 44 342 99 635 348 789 669 125 263 154 564 81 855 -65 263
-242 525 -470 697 -182 138 -516 253 -694 241 -39 -3 -46 -5 -30 -13 11 -4 38
-19 59 -33 l39 -24 -6 -95 c-7 -94 -24 -173 -37 -173 -4 0 -11 17 -15 38 -14
76 -66 287 -73 294 -4 4 -65 -27 -135 -70z m367 -52 c3 0 29 -14 57 -31 l51
-32 -7 -86 c-10 -119 -50 -239 -114 -339 -30 -46 -58 -81 -65 -79 -6 2 -20 61
-32 132 -21 125 -21 130 -3 198 10 38 23 110 29 161 15 123 14 122 49 97 16
-12 32 -21 35 -21z m199 -116 c28 -15 69 -37 89 -50 l38 -24 0 -75 c0 -53 -9
-108 -31 -188 -32 -115 -40 -137 -90 -242 -29 -61 -179 -235 -203 -235 -11 0
-56 213 -56 267 0 11 25 61 55 112 68 112 113 243 127 367 6 52 13 94 15 94 2
0 27 -12 56 -26z m269 -155 c37 -23 68 -47 68 -55 0 -27 -81 -400 -102 -469
-43 -144 -92 -259 -137 -325 -81 -118 -208 -258 -221 -243 -4 4 -19 60 -33
123 -44 204 -46 181 23 253 85 89 104 117 167 242 76 150 95 206 129 373 16
78 31 142 33 142 3 0 35 -19 73 -41z m200 -115 c83 -49 90 -54 79 -68 -5 -6
-27 -112 -50 -236 -48 -260 -93 -458 -123 -539 -36 -97 -173 -375 -215 -437
-43 -62 -99 -120 -121 -126 -9 -2 -33 48 -72 152 l-59 154 77 86 c42 47 81 90
87 95 42 37 183 324 221 450 32 105 81 341 90 433 3 39 10 72 15 72 4 0 36
-16 71 -36z m111 -1385 c-11 -10 -426 -260 -436 -262 -4 -1 -21 29 -38 66
l-30 68 28 37 c15 20 47 58 70 83 97 104 248 415 306 629 29 107 60 286 77
435 6 55 14 116 18 135 4 19 8 -239 10 -574 1 -336 -1 -613 -5 -617z"/>
<path d="M1108 3363 c-15 -4 -18 -16 -18 -74 l0 -70 30 16 c28 15 30 19 30 75
0 61 -2 64 -42 53z"/>
<path d="M828 3254 c-28 -14 -28 -16 -28 -115 l0 -100 30 16 30 16 0 99 c0 55
-1 100 -2 100 -2 -1 -15 -8 -30 -16z"/>
<path d="M985 3139 c-44 -28 -90 -54 -102 -59 -22 -9 -23 -14 -23 -135 0 -69
3 -125 7 -125 4 0 53 19 110 42 l103 41 0 144 c0 79 -3 143 -7 142 -5 0 -44
-23 -88 -50z"/>
<path d="M567 3062 c-15 -16 -17 -34 -15 -96 3 -72 4 -76 21 -64 15 11 17 26
15 97 -3 81 -4 83 -21 63z"/>
<path d="M692 2964 l-92 -56 0 -99 0 -99 38 16 c20 8 65 27 100 41 l62 25 0
114 c0 63 -3 114 -8 114 -4 0 -49 -25 -100 -56z"/>
<path d="M478 2834 l-58 -36 0 -80 c0 -44 3 -78 8 -76 4 2 31 12 60 23 l52 20
0 92 c0 51 -1 93 -2 93 -2 0 -29 -17 -60 -36z"/>
<path d="M975 2785 c-49 -19 -96 -35 -102 -35 -10 0 -13 -32 -13 -125 0 -69 4
-125 9 -125 5 0 53 9 106 20 53 11 99 20 101 20 2 0 4 63 4 140 0 77 -3 140
-7 140 -5 -1 -48 -16 -98 -35z"/>
<path d="M695 2686 l-90 -34 -3 -101 c-2 -73 1 -101 9 -101 7 0 52 8 101 17
l88 17 0 118 c0 65 -3 118 -7 117 -5 0 -48 -15 -98 -33z"/>
<path d="M478 2607 l-58 -22 0 -89 c0 -86 0 -88 23 -83 12 3 39 9 60 12 l37 7
0 99 c0 55 -1 99 -2 98 -2 0 -29 -10 -60 -22z"/>
<path d="M311 2591 c-52 -19 -77 -34 -82 -49 -11 -28 -9 -28 87 7 61 22 80 34
82 50 4 26 3 26 -87 -8z"/>
<path d="M953 2442 l-93 -15 0 -119 0 -118 110 0 110 0 0 135 c0 122 -2 135
-17 134 -10 -1 -60 -9 -110 -17z"/>
<path d="M673 2397 l-73 -10 0 -103 0 -104 100 0 100 0 0 115 0 115 -27 -1
c-16 -1 -61 -6 -100 -12z"/>
<path d="M270 2379 c-93 -22 -93 -22 -88 -42 2 -11 14 -12 78 -1 142 24 140
24 140 44 0 25 -17 25 -130 -1z"/>
<path d="M453 2363 l-33 -4 0 -95 c0 -105 -3 -102 83 -88 l37 7 0 93 0 94 -27
-2 c-16 0 -43 -3 -60 -5z"/>
<path d="M228 2163 c-50 -3 -58 -7 -58 -23 0 -19 8 -20 115 -20 l115 0 0 25
c0 27 -7 28 -172 18z"/>
<path d="M420 2031 l0 -89 30 -6 c17 -3 44 -9 60 -12 l30 -6 0 101 0 101 -60
0 -60 0 0 -89z"/>
<path d="M600 2017 l0 -105 68 -11 c37 -7 82 -14 100 -17 l32 -6 0 116 0 116
-47 0 c-27 0 -72 3 -100 6 l-53 7 0 -106z"/>
<path d="M860 1990 c0 -136 -14 -119 111 -139 119 -20 109 -31 109 124 l0 135
-110 0 -110 0 0 -120z"/>
<path d="M1160 1965 c0 -80 3 -145 8 -145 11 0 183 -29 215 -36 l27 -6 0 166
0 166 -125 0 -125 0 0 -145z"/>
<path d="M180 1957 c0 -11 26 -21 98 -38 53 -12 103 -24 110 -26 7 -3 12 4 12
19 0 23 -5 25 -82 37 -46 7 -95 15 -110 18 -21 4 -28 2 -28 -10z"/>
<path d="M420 1794 l0 -89 60 -22 60 -22 0 99 c0 108 3 104 -74 115 l-46 7 0
-88z"/>
<path d="M602 1744 l3 -106 95 -34 c52 -19 96 -34 98 -34 1 0 2 54 2 119 l0
119 -77 16 c-43 9 -88 19 -101 22 -23 5 -23 4 -20 -102z"/>
<path d="M860 1669 c0 -98 3 -129 13 -129 7 0 46 -13 87 -29 41 -15 85 -32 98
-35 l23 -8 -3 143 -3 143 -107 22 -108 21 0 -128z"/>
<path d="M227 1750 c6 -22 18 -28 123 -70 l50 -20 0 24 c0 20 -10 27 -76 50
-41 15 -81 29 -89 32 -10 4 -12 0 -8 -16z"/>
<path d="M420 1567 l1 -82 53 -32 c30 -18 57 -33 60 -33 9 0 7 178 -2 184 -4
2 -31 14 -60 25 l-52 21 0 -83z"/>
<path d="M600 1480 l0 -99 53 -34 c28 -18 73 -46 100 -61 l47 -28 0 120 0 120
-42 17 c-24 10 -69 28 -100 41 l-58 23 0 -99z"/>
<path d="M862 1345 l3 -128 60 -37 c33 -20 81 -49 108 -64 l47 -28 0 150 0
150 -92 36 c-51 19 -101 38 -111 42 -16 6 -17 -2 -15 -121z"/>
<path d="M550 1319 c0 -69 11 -109 30 -109 6 0 10 37 10 84 0 81 -6 96 -36 96
-2 0 -4 -32 -4 -71z"/>
<path d="M800 1145 l0 -94 30 -16 30 -16 0 95 c0 87 -2 96 -22 110 -12 9 -26
16 -30 16 -5 0 -8 -43 -8 -95z"/>
<path d="M1090 1001 c0 -63 2 -69 23 -75 12 -3 25 -6 30 -6 4 0 7 27 7 60 0
56 -2 60 -30 75 l-30 16 0 -70z"/>
<path d="M181 423 c-44 -6 -108 -49 -127 -85 -42 -82 -23 -194 42 -243 39 -30
122 -43 188 -31 l36 7 0 64 c0 50 4 66 18 74 13 8 1 10 -48 9 -36 0 -55 -3
-42 -5 20 -4 22 -10 22 -69 l0 -64 -45 0 c-95 0 -140 55 -140 169 0 47 6 75
19 98 26 43 82 67 134 58 34 -5 43 -12 53 -38 l11 -32 9 39 c5 21 8 41 6 43
-7 7 -101 11 -136 6z"/>
<path d="M1795 415 c-107 -39 -94 -145 24 -189 110 -42 107 -146 -4 -146 -47
0 -46 -1 -71 65 -6 18 -8 17 -14 -10 -14 -58 -12 -63 29 -70 104 -17 191 27
191 99 0 31 -6 40 -42 66 -22 16 -47 30 -54 30 -19 0 -84 65 -84 85 0 26 46
65 77 65 37 0 49 -9 64 -45 l12 -30 9 39 c4 21 7 40 5 42 -12 12 -108 12 -142
-1z"/>
<path d="M413 413 c15 -4 17 -20 17 -163 0 -141 -2 -160 -17 -169 -14 -8 -3
-10 42 -10 33 1 52 3 43 6 -15 4 -18 17 -18 84 0 86 10 98 47 57 19 -22 57
-82 78 -123 7 -14 22 -21 50 -23 31 -2 36 0 23 8 -15 9 -63 80 -94 139 -12 22
-10 25 19 40 62 31 60 134 -3 152 -14 4 -65 7 -115 7 -49 0 -82 -2 -72 -5z
m169 -36 c43 -55 4 -127 -68 -127 l-34 0 0 74 c0 50 4 76 13 80 23 10 72 -4
89 -27z"/>
<path d="M743 409 c15 -9 17 -28 17 -169 0 -157 0 -159 -22 -163 -13 -2 34 -5
103 -6 l127 -1 7 36 c8 47 0 53 -20 15 -15 -30 -18 -31 -80 -31 l-65 0 0 75 0
75 49 0 c43 0 50 -3 54 -22 2 -13 4 2 4 32 0 30 -2 45 -4 33 -4 -20 -11 -23
-54 -23 l-49 0 0 70 0 70 65 0 c63 0 65 -1 65 -25 0 -14 5 -25 10 -25 6 0 10
9 10 19 0 11 3 26 6 35 5 14 -9 16 -117 16 -89 -1 -119 -3 -106 -11z"/>
<path d="M1048 410 c21 -9 22 -13 22 -163 0 -150 -1 -154 -22 -165 -18 -8 5
-11 105 -11 l127 -1 -1 43 0 42 -16 -32 c-16 -32 -18 -33 -85 -33 l-68 0 0 75
0 75 48 0 c41 0 51 -4 60 -22 9 -20 11 -15 11 30 1 33 -3 51 -9 47 -5 -3 -10
-13 -10 -21 0 -10 -13 -14 -50 -14 l-50 0 0 70 0 70 64 0 64 0 7 -32 c6 -29 8
-31 15 -13 5 11 9 30 9 43 1 22 -1 22 -121 21 -84 0 -116 -3 -100 -9z"/>
<path d="M1338 413 c22 -4 22 -6 22 -168 0 -162 0 -164 -22 -168 -13 -2 2 -5
32 -5 42 -1 51 1 38 9 -16 9 -18 27 -18 137 l0 127 38 -40 c21 -22 73 -84 116
-138 43 -53 82 -97 87 -97 5 0 9 72 9 165 0 162 0 166 23 175 17 7 9 9 -33 8
-30 0 -47 -2 -37 -5 15 -4 17 -19 17 -130 l0 -125 -107 131 c-107 129 -108
131 -148 130 -23 -1 -30 -4 -17 -6z"/>
<path d="M2008 410 c21 -9 22 -13 22 -163 0 -150 -1 -154 -22 -165 -19 -9 -12
-11 42 -10 36 0 55 3 43 5 -22 4 -23 9 -23 89 l0 84 95 0 95 0 0 -84 c0 -72
-3 -85 -17 -89 -10 -3 11 -5 47 -5 48 -1 59 2 43 8 -22 9 -23 13 -23 165 0
152 1 156 23 165 16 6 5 9 -43 8 -36 0 -57 -2 -47 -5 14 -4 17 -16 17 -74 l0
-69 -95 0 -95 0 0 65 c0 59 2 67 23 75 16 6 6 9 -43 9 -49 0 -59 -3 -42 -9z"/>
<path d="M2418 410 c21 -9 22 -13 22 -165 0 -152 -1 -156 -22 -165 -17 -6 -7
-9 42 -9 49 0 59 3 43 9 -22 9 -23 13 -23 165 0 152 1 156 23 165 16 6 6 9
-43 9 -49 0 -59 -3 -42 -9z"/>
<path d="M2590 413 c27 -11 30 -26 30 -170 0 -135 -1 -143 -22 -157 -21 -15
-19 -16 42 -15 50 0 60 2 42 9 -21 9 -23 15 -20 72 l3 63 50 5 c63 7 91 22
111 62 23 45 11 94 -29 118 -26 16 -50 20 -127 19 -52 0 -88 -3 -80 -6z m171
-29 c13 -12 19 -30 19 -62 0 -60 -20 -82 -77 -82 l-43 0 0 86 0 87 41 -6 c22
-3 49 -13 60 -23z"/>
</g>
</svg>
