<?xml version="1.0" standalone="no"?>
<!DOCTYPE svg PUBLIC "-//W3C//DTD SVG 20010904//EN"
 "http://www.w3.org/TR/2001/REC-SVG-20010904/DTD/svg10.dtd">
<svg version="1.0" xmlns="http://www.w3.org/2000/svg"
 width="1024.000000pt" height="376.000000pt" viewBox="0 0 1024.000000 376.000000"
 preserveAspectRatio="xMidYMid meet">

<g transform="translate(0.000000,376.000000) scale(0.100000,-0.100000)"
fill="#000000" stroke="none">
<path d="M460 3753 c-14 -3 -29 -9 -34 -14 -6 -5 -16 -9 -24 -9 -20 0 -80 -29
-128 -61 -107 -72 -244 -247 -244 -311 0 -8 -6 -20 -12 -26 -10 -10 -14 -311
-16 -1424 -2 -1400 -2 -1412 18 -1487 46 -167 145 -289 291 -360 46 -22 98
-44 114 -48 17 -4 2123 -9 4680 -11 l4650 -2 70 21 c103 31 183 77 250 144 70
70 115 150 144 255 21 74 21 89 21 1464 0 1381 0 1389 -21 1460 -30 101 -74
180 -140 246 -74 75 -146 117 -274 158 -22 8 -9305 12 -9345 5z m5370 -1873
l0 -1770 -2687 2 -2688 3 -57 23 c-117 47 -213 143 -260 260 l-23 57 -3 1395
c-2 972 1 1411 8 1447 25 118 123 249 228 302 103 52 -56 50 2815 50 l2667 1
0 -1770z m1460 1040 c116 0 170 4 178 12 9 9 12 -2 11 -53 -1 -56 -2 -60 -10
-32 -7 25 -17 35 -47 43 -20 7 -53 10 -72 8 l-35 -3 -3 -185 c-3 -215 0 -243
31 -258 18 -9 8 -11 -53 -11 -60 0 -71 2 -53 11 30 14 35 55 31 268 l-3 175
-32 3 c-17 2 -50 -2 -72 -8 -33 -9 -42 -17 -50 -43 -8 -28 -9 -24 -10 33 -1
50 2 61 11 52 8 -8 62 -12 178 -12z m-900 -45 l0 -50 -15 29 c-32 60 -88 74
-130 31 -24 -23 -29 -43 -25 -95 3 -33 13 -45 82 -91 87 -59 108 -86 108 -137
0 -106 -77 -155 -192 -120 -33 10 -41 9 -49 -3 -6 -9 -9 8 -9 50 0 69 3 71 28
19 31 -61 113 -78 157 -33 51 50 25 114 -69 174 -81 51 -101 80 -101 146 0 89
56 136 157 132 l58 -2 0 -50z m2829 0 c0 -43 -2 -47 -12 -31 -49 80 -118 88
-155 19 -16 -29 -15 -84 2 -106 8 -10 45 -39 83 -65 113 -78 132 -155 58 -229
-27 -27 -40 -33 -78 -33 -24 0 -59 5 -77 11 -26 9 -34 9 -41 -2 -5 -9 -9 10
-9 51 l0 65 20 -41 c23 -45 53 -64 104 -64 48 0 76 31 76 84 0 37 -5 48 -34
74 -19 16 -51 39 -73 51 -54 31 -86 82 -86 137 0 84 63 134 164 131 l59 -2 -1
-50z m-2510 3 c0 -35 -2 -39 -9 -21 -13 31 -41 43 -104 43 l-56 0 0 -105 0
-105 59 0 c51 0 62 3 75 22 15 21 16 20 16 -37 -1 -50 -3 -57 -12 -40 -17 30
-28 35 -85 35 l-53 0 0 -89 c0 -122 0 -121 75 -121 62 0 83 11 98 50 8 21 8
-19 1 -47 -6 -22 -10 -23 -137 -23 -122 0 -130 1 -109 16 22 15 22 20 22 224
0 204 0 209 -22 224 -21 15 -13 16 110 16 l132 0 -1 -42z m256 28 c40 -17 65
-60 65 -113 0 -45 -30 -98 -60 -108 l-22 -7 25 -26 c13 -15 44 -62 68 -105 24
-44 55 -85 69 -93 24 -13 23 -14 -23 -11 l-49 2 -57 98 c-52 91 -85 126 -118
127 -10 0 -13 -26 -13 -99 0 -92 2 -101 22 -115 21 -15 18 -16 -52 -15 -41 0
-68 3 -60 6 37 13 40 33 40 232 0 108 -4 201 -8 207 -4 6 -16 16 -27 22 -32
18 156 16 200 -2z m667 -2 c-22 -15 -22 -20 -22 -224 0 -204 0 -209 22 -224
21 -15 18 -16 -52 -15 -60 0 -71 2 -53 11 30 15 33 32 33 228 0 196 -3 213
-33 228 -18 9 -7 11 53 11 70 1 73 0 52 -15z m318 -21 c-1 -34 -2 -36 -12 -18
-17 30 -28 35 -90 35 l-58 0 0 -105 0 -105 59 0 c49 0 61 3 74 23 15 21 16 20
16 -32 l1 -55 -20 22 c-17 17 -32 22 -75 22 l-55 0 0 -99 c0 -92 2 -101 22
-115 21 -15 18 -16 -52 -15 -41 1 -67 3 -57 6 10 3 22 16 28 29 10 27 13 365
3 400 -3 12 -15 26 -27 32 -17 8 11 11 111 11 l132 1 0 -37z m175 25 c-11 -6
-23 -16 -27 -22 -4 -6 -8 -99 -8 -207 0 -199 3 -219 40 -232 8 -3 -19 -6 -60
-6 -70 -1 -73 0 -52 15 22 15 22 20 22 224 0 204 0 209 -22 224 -21 15 -18 16
52 16 61 -1 71 -3 55 -12z m167 -8 c-20 -19 -22 -31 -22 -115 l0 -94 48 52
c26 28 64 70 84 92 41 43 45 54 26 73 -9 9 2 12 53 12 62 -1 63 -1 34 -14 -17
-7 -70 -55 -118 -106 -75 -81 -85 -96 -74 -109 8 -9 51 -63 97 -120 49 -61 95
-109 114 -117 31 -14 31 -14 -24 -11 l-54 2 -91 113 -90 113 -3 -98 c-3 -90
-1 -99 19 -115 21 -18 19 -18 -47 -18 -65 0 -67 1 -46 16 22 15 22 20 22 224
0 204 0 209 -22 224 -21 15 -19 16 47 16 l69 0 -22 -20z m549 -170 c78 -246
87 -270 113 -280 14 -6 -5 -8 -59 -8 -44 0 -70 3 -58 5 31 6 33 20 9 103 l-22
75 -75 3 -76 3 -20 -73 c-21 -79 -20 -105 6 -111 9 -3 -9 -5 -39 -6 -45 0 -52
2 -39 12 9 7 20 21 26 32 9 16 80 248 125 403 7 26 14 32 30 30 17 -2 30 -33
79 -188z m551 174 c-22 -15 -22 -20 -22 -224 0 -204 0 -209 22 -224 21 -15 19
-16 -47 -16 -66 0 -68 1 -47 16 22 15 22 20 22 219 0 197 -1 205 -22 225 l-22
20 69 0 c66 0 68 -1 47 -16z m-1653 -704 c24 -7 39 -6 48 1 11 9 13 0 13 -47
l0 -59 -20 33 c-41 67 -163 83 -233 29 -55 -42 -72 -88 -72 -192 0 -76 4 -98
25 -139 14 -28 37 -59 52 -70 29 -21 127 -33 173 -22 24 6 25 9 25 87 0 73 -2
80 -22 89 -17 6 -3 9 52 9 67 1 72 -1 50 -12 -23 -12 -25 -18 -28 -99 l-3 -87
-44 -7 c-25 -3 -76 -5 -114 -2 -54 3 -78 10 -117 34 -92 57 -134 193 -95 308
18 51 76 115 126 137 44 20 131 25 184 9z m-1374 -14 c44 -19 70 -59 69 -110
-1 -33 -8 -46 -37 -71 l-36 -31 34 -13 c99 -36 105 -187 8 -227 -20 -9 -71
-14 -135 -14 -96 0 -101 1 -80 16 22 15 22 20 22 224 0 204 0 209 -22 224 -21
15 -17 16 60 16 49 0 97 -6 117 -14z m409 -203 c51 -166 73 -223 92 -240 l25
-23 -73 1 c-54 0 -67 3 -50 9 27 11 27 17 0 108 l-21 73 -76 -3 -75 -3 -21
-78 c-20 -78 -20 -79 -1 -93 18 -13 15 -14 -33 -14 -52 0 -53 0 -31 18 15 12
39 75 86 227 35 116 64 216 64 223 0 6 10 12 23 12 22 0 28 -16 91 -217z m363
22 l158 -195 3 178 c3 171 2 178 -19 195 -21 17 -20 17 32 17 50 -1 53 -2 34
-16 -19 -14 -20 -30 -25 -246 l-5 -231 -70 85 c-38 47 -110 135 -160 196 l-90
112 -3 -173 c-3 -165 -2 -173 19 -189 21 -18 20 -18 -37 -17 -33 1 -51 3 -41
6 31 8 37 48 37 233 l0 179 -37 30 -38 31 42 0 42 0 158 -195z m855 179 c-21
-15 -22 -21 -22 -190 0 -187 6 -216 52 -248 28 -20 81 -20 118 -1 54 28 64 63
68 233 4 174 1 194 -30 210 -19 9 -10 11 52 11 70 1 73 0 52 -15 -22 -15 -22
-20 -22 -224 0 -204 0 -209 22 -224 22 -15 21 -16 -25 -16 -46 0 -47 1 -47 32
l0 32 -27 -26 c-41 -37 -66 -48 -116 -48 -54 0 -105 31 -129 80 -15 29 -18 63
-18 190 0 176 -3 194 -33 208 -18 9 -7 11 53 11 70 1 73 0 52 -15z m562 -170
c83 -102 156 -190 163 -196 11 -8 13 20 13 153 0 185 -3 202 -33 217 -18 9
-11 11 38 11 57 1 58 0 37 -15 -22 -15 -22 -19 -22 -245 0 -126 -3 -229 -7
-229 -5 0 -30 28 -58 62 -27 35 -101 125 -162 201 l-113 138 0 -165 c0 -172 7
-211 37 -219 10 -3 -9 -5 -42 -6 -56 -1 -58 0 -37 15 21 15 22 20 22 208 0
207 -2 214 -55 244 -17 10 -14 11 25 11 l45 1 149 -186z m507 -4 c77 -244 87
-270 113 -280 14 -6 -5 -8 -59 -8 -44 0 -70 3 -58 5 31 6 33 20 9 103 l-22 75
-75 3 -76 3 -20 -73 c-21 -79 -20 -105 6 -111 9 -3 -9 -5 -39 -6 -45 0 -52 2
-39 12 9 7 20 21 26 32 9 16 80 248 125 403 7 26 14 33 30 30 18 -3 30 -31 79
-188z m377 -11 l162 -201 0 178 c0 99 -4 184 -8 190 -4 6 -16 16 -27 22 -17 9
-10 11 40 12 57 0 58 -1 37 -16 -22 -15 -22 -19 -22 -245 0 -126 -3 -229 -7
-229 -5 1 -81 91 -170 201 l-163 201 0 -165 c0 -173 7 -212 37 -220 10 -3 -9
-5 -42 -6 -56 -1 -58 0 -37 15 21 15 22 20 22 205 0 111 -4 198 -10 209 -6 11
-23 26 -38 34 l-27 15 45 1 45 0 163 -201z m-3158 -539 c-17 -17 -20 -33 -20
-110 l0 -90 120 0 120 0 0 94 c0 87 -2 96 -22 110 -21 15 -18 16 52 16 61 -1
71 -3 55 -12 -11 -6 -23 -16 -27 -22 -4 -6 -8 -99 -8 -207 0 -199 3 -219 40
-232 8 -3 -19 -6 -60 -6 -70 -1 -73 0 -52 15 20 14 22 23 22 120 l0 104 -120
0 -120 0 0 -100 c0 -87 3 -103 20 -120 l20 -20 -67 0 c-64 0 -66 1 -45 16 22
15 22 20 22 224 0 204 0 209 -22 224 -21 15 -19 16 45 16 l67 0 -20 -20z m473
3 c-23 -15 -23 -19 -23 -219 0 -191 1 -205 20 -224 l20 -20 -67 0 c-64 0 -66
1 -45 16 22 15 22 20 22 223 0 205 0 209 -22 224 -22 15 -19 16 47 16 66 0 69
-1 48 -16z m220 5 c-12 -6 -24 -20 -27 -32 -3 -11 -6 -121 -6 -243 l0 -221
-26 -31 c-19 -23 -34 -31 -58 -31 -34 0 -76 24 -76 43 0 8 3 8 12 -1 20 -20
76 -15 88 7 6 12 10 112 10 255 0 231 0 235 -22 250 -21 15 -18 16 52 15 60 0
71 -2 53 -11z m309 -203 c37 -115 70 -217 73 -226 3 -9 15 -21 28 -27 18 -9 8
-11 -53 -11 -55 0 -69 3 -52 9 27 11 27 7 0 102 l-23 78 -73 0 c-82 0 -82 0
-105 -108 -11 -49 -10 -55 8 -68 17 -13 14 -14 -35 -14 -52 0 -53 1 -33 15 23
16 27 27 108 303 66 225 68 224 157 -53z m233 203 c-11 -6 -23 -16 -27 -22
-12 -17 -9 -293 3 -342 21 -82 96 -117 170 -78 50 26 59 63 59 253 0 164 -1
170 -22 185 -21 15 -18 16 52 15 60 0 71 -2 53 -11 -12 -6 -24 -20 -27 -32 -8
-31 -7 -389 2 -402 4 -6 16 -16 27 -22 17 -10 12 -11 -32 -12 l-53 0 0 32 c0
32 0 32 -16 10 -38 -55 -135 -69 -194 -29 -66 44 -75 72 -78 265 -4 162 -5
173 -25 187 -20 14 -16 15 53 15 61 -1 71 -3 55 -12z"/>
<path d="M2040 2292 c-110 -8 -324 -35 -378 -47 -34 -8 -80 -24 -102 -35 l-39
-20 58 -97 c172 -291 337 -515 510 -691 40 -41 78 -72 84 -69 7 2 41 15 77 28
36 12 67 25 70 28 3 3 10 6 15 6 6 0 27 6 48 14 33 11 36 15 25 29 -12 14 -11
14 9 2 19 -12 25 -12 44 5 12 11 19 14 15 8 -5 -9 -2 -11 8 -7 9 3 16 10 16
15 0 4 7 5 17 2 12 -5 14 -3 8 7 -5 8 -4 11 3 7 15 -10 43 3 35 16 -3 6 -1 7
6 3 14 -9 53 2 46 14 -3 4 3 6 13 3 11 -2 26 2 34 11 9 8 18 13 21 10 3 -4 16
1 29 10 15 10 17 16 8 16 -33 0 -188 108 -268 187 -46 46 -81 83 -77 83 5 0
-2 9 -15 20 -13 11 -19 20 -15 20 4 0 1 8 -7 18 -9 9 -26 37 -38 62 -13 25
-28 48 -34 52 -6 4 -8 8 -3 8 4 0 -2 19 -14 43 -12 23 -21 43 -20 45 1 1 -3
19 -9 40 -5 20 -15 65 -21 98 l-11 62 -56 -2 c-32 0 -73 -2 -92 -4z m605 -711
c3 -5 2 -12 -3 -15 -5 -3 -9 1 -9 9 0 17 3 19 12 6z m-60 -20 c3 -5 2 -12 -3
-15 -5 -3 -9 1 -9 9 0 17 3 19 12 6z"/>
<path d="M1499 2185 c-3 -2 -63 -13 -134 -24 -72 -11 -143 -24 -160 -29 -36
-10 -35 -23 2 -100 43 -91 226 -214 415 -279 57 -19 111 -39 121 -44 9 -5 17
-7 17 -3 0 4 -43 85 -96 181 -52 95 -109 203 -125 238 -29 65 -32 69 -40 60z"/>
<path d="M1075 2091 c-64 -23 -163 -75 -194 -101 l-24 -20 124 -128 c70 -72
152 -168 188 -222 100 -147 309 -342 448 -416 l58 -31 202 66 c111 36 203 69
205 73 2 5 -70 99 -117 152 -6 6 -30 36 -55 66 -25 30 -52 63 -60 72 -8 9 -76
42 -150 73 -351 148 -516 270 -536 397 -7 44 -15 45 -89 19z"/>
<path d="M3983 2095 c0 -8 4 -12 9 -9 5 3 6 10 3 15 -9 13 -12 11 -12 -6z"/>
<path d="M3973 2055 c0 -8 4 -12 9 -9 5 3 6 10 3 15 -9 13 -12 11 -12 -6z"/>
<path d="M778 1902 c-32 -21 -57 -40 -55 -44 6 -20 200 -151 283 -192 52 -25
96 -46 99 -46 12 0 -27 60 -86 130 -75 90 -170 190 -178 189 -3 0 -32 -17 -63
-37z"/>
<path d="M661 1808 c-43 -42 -81 -105 -81 -135 0 -16 119 -179 284 -388 87
-111 175 -198 251 -250 l50 -34 205 70 c113 38 208 73 213 78 4 4 -18 25 -50
46 -55 37 -176 152 -293 279 -42 46 -83 76 -179 128 -147 82 -226 134 -302
199 l-57 48 -41 -41z"/>
<path d="M3863 1835 c0 -8 4 -12 9 -9 5 3 6 10 3 15 -9 13 -12 11 -12 -6z"/>
<path d="M3839 1838 c-4 -12 -5 -57 0 -53 6 6 10 55 4 55 -1 0 -3 -1 -4 -2z"/>
<path d="M3805 1771 c-3 -5 -2 -12 3 -15 5 -3 9 1 9 9 0 17 -3 19 -12 6z"/>
<path d="M3836 1758 c3 -5 10 -6 15 -3 13 9 11 12 -6 12 -8 0 -12 -4 -9 -9z"/>
<path d="M3824 1686 c1 -14 4 -28 7 -31 3 -3 5 6 5 19 -1 14 -4 28 -7 31 -3 3
-5 -6 -5 -19z"/>
<path d="M3699 1688 c-6 -20 -6 -39 0 -42 4 -3 7 6 7 20 0 20 -4 32 -7 22z"/>
<path d="M3744 1674 c1 -8 4 -15 7 -16 2 -2 3 -1 2 1 -2 2 2 9 7 16 7 8 5 12
-4 12 -8 0 -13 -6 -12 -13z"/>
<path d="M3779 1678 c-5 -18 -6 -38 -1 -34 7 8 12 36 6 36 -2 0 -4 -1 -5 -2z"/>
<path d="M3723 1645 c0 -8 4 -12 9 -9 5 3 6 10 3 15 -9 13 -12 11 -12 -6z"/>
<path d="M3893 1635 c0 -8 4 -12 9 -9 5 3 6 10 3 15 -9 13 -12 11 -12 -6z"/>
<path d="M3670 1625 c5 -7 6 -16 2 -21 -4 -5 -3 -5 2 -1 15 12 15 34 0 34 -9
0 -11 -4 -4 -12z"/>
<path d="M3749 1635 c-1 -3 -2 -8 -3 -12 -1 -5 -5 -13 -9 -19 -4 -7 1 -18 11
-25 15 -12 16 -12 5 2 -7 9 -10 19 -6 23 8 8 13 36 7 36 -2 0 -5 -2 -5 -5z"/>
<path d="M3645 1618 c7 -17 -9 -20 -31 -6 -15 10 -13 -21 3 -52 9 -17 13 -20
13 -8 0 9 -4 20 -10 23 -5 3 -10 11 -10 17 0 6 9 3 20 -7 11 -10 18 -21 15
-25 -2 -4 2 -7 8 -7 7 0 13 10 14 21 1 12 -1 15 -4 8 -3 -6 -9 -9 -14 -6 -6 3
-5 11 2 20 10 12 9 17 0 27 -10 9 -11 8 -6 -5z"/>
<path d="M3701 1623 c-1 -17 16 -25 25 -12 4 7 3 9 -4 5 -5 -3 -13 0 -15 6 -4
9 -6 10 -6 1z"/>
<path d="M569 1613 c0 -5 -2 -93 -4 -198 -1 -104 -12 -282 -24 -395 -12 -113
-24 -237 -27 -276 l-7 -70 56 -16 56 -16 99 49 c83 42 139 59 353 112 l254 64
-139 5 -140 5 -80 -44 c-45 -24 -142 -74 -216 -109 -111 -54 -140 -64 -167
-59 -18 3 -33 9 -33 13 0 10 193 115 380 207 85 42 159 80 163 84 5 5 -17 33
-49 62 -166 155 -223 222 -344 404 -68 102 -125 185 -127 185 -1 0 -3 -3 -4
-7z"/>
<path d="M3580 1599 c0 -5 -5 -7 -10 -4 -6 4 -10 3 -9 -2 1 -4 1 -19 0 -33 -1
-20 -3 -22 -11 -10 -7 11 -10 11 -10 2 0 -7 -4 -11 -10 -7 -5 3 -8 11 -6 18 1
7 1 9 -1 4 -3 -4 -8 -5 -12 -3 -4 3 -7 -4 -8 -14 -2 -24 14 -35 30 -22 7 5 19
8 28 7 12 -2 15 3 11 23 -3 17 -1 23 7 18 6 -4 9 -11 6 -16 -3 -5 -1 -11 4
-14 16 -10 22 11 6 24 -7 6 -11 18 -8 26 3 8 2 14 -1 14 -3 0 -6 -5 -6 -11z
m-55 -59 c3 -5 1 -10 -4 -10 -6 0 -11 5 -11 10 0 6 2 10 4 10 3 0 8 -4 11 -10z"/>
<path d="M3689 1598 c-6 -20 -6 -39 0 -42 4 -3 7 6 7 20 0 20 -4 32 -7 22z"/>
<path d="M3779 1583 c-13 -16 -12 -17 4 -4 9 7 17 15 17 17 0 8 -8 3 -21 -13z"/>
<path d="M3713 1575 c0 -8 4 -12 9 -9 5 3 6 10 3 15 -9 13 -12 11 -12 -6z"/>
<path d="M3478 1537 c-3 -19 -2 -25 4 -19 6 6 8 18 6 28 -3 14 -5 12 -10 -9z"/>
<path d="M3460 1542 c0 -7 -5 -11 -11 -9 -6 1 -14 -5 -16 -13 -4 -13 -3 -13 6
0 10 13 11 13 11 0 1 -11 3 -11 11 3 6 10 8 21 5 24 -3 4 -6 1 -6 -5z"/>
<path d="M3753 1515 c0 -8 4 -12 9 -9 5 3 6 10 3 15 -9 13 -12 11 -12 -6z"/>
<path d="M3786 1518 c3 -5 10 -6 15 -3 13 9 11 12 -6 12 -8 0 -12 -4 -9 -9z"/>
<path d="M2720 1485 c-59 -23 -77 -34 -60 -36 14 -1 32 -2 40 -3 8 0 18 4 22
9 5 6 8 4 8 -5 0 -13 1 -13 10 0 5 8 10 10 10 5 0 -7 23 -10 59 -8 73 3 84 5
93 18 5 6 8 5 8 -2 0 -7 9 -13 21 -13 11 0 18 4 14 9 -3 5 -1 13 5 16 6 4 9 1
8 -7 -2 -9 6 -12 27 -10 17 1 53 4 82 4 29 1 50 4 47 7 -9 10 -119 8 -132 -2
-9 -7 -11 -6 -6 6 4 11 0 15 -11 13 -10 -1 -38 3 -64 10 -75 20 -76 20 -73 6
1 -8 -2 -11 -8 -7 -6 3 -8 11 -5 16 9 14 -3 11 -95 -26z"/>
<path d="M3721 1507 c-8 -10 -7 -14 2 -14 8 0 14 6 14 14 0 7 -1 13 -2 13 -2
0 -8 -6 -14 -13z"/>
<path d="M3330 1500 c-12 -7 -10 -9 7 -7 12 0 19 5 17 9 -6 10 -6 10 -24 -2z"/>
<path d="M3580 1491 c0 -6 -10 -8 -21 -6 -12 3 -19 2 -15 -2 3 -3 0 -13 -6
-22 -9 -11 -6 -10 9 2 16 14 22 15 26 5 4 -11 6 -11 6 0 1 7 5 10 11 7 6 -3 7
1 4 9 -7 18 -14 21 -14 7z"/>
<path d="M3608 1482 c4 -11 7 -12 10 -4 3 10 7 10 20 0 14 -10 15 -10 5 2 -18
20 -43 22 -35 2z"/>
<path d="M3497 1484 c-6 -6 -47 -12 -117 -19 -19 -1 -35 -4 -35 -5 0 -2 -89
-10 -117 -11 -10 0 -18 -8 -18 -17 0 -15 2 -15 10 -2 5 8 10 11 10 5 0 -5 -4
-16 -9 -24 -6 -10 -11 -6 -20 15 -11 29 -11 29 -8 3 3 -20 0 -26 -12 -24 -9 1
-19 -3 -23 -9 -5 -8 -8 -7 -8 2 0 7 -4 10 -10 7 -19 -11 -10 -24 13 -19 23 6
67 13 102 17 11 1 25 6 31 9 6 4 21 6 32 3 12 -2 24 0 27 5 3 5 15 7 26 5 12
-2 22 2 26 11 5 13 8 13 15 2 7 -10 8 -9 4 5 -3 9 -1 17 4 17 5 0 11 -8 13
-17 3 -13 5 -12 6 5 0 13 5 20 11 17 6 -4 8 -10 5 -15 -3 -4 3 -7 12 -5 10 1
17 8 16 14 -4 14 14 14 23 0 5 -8 10 -6 16 5 6 10 7 20 4 23 -3 4 -6 1 -6 -5
0 -7 -5 -12 -11 -12 -5 0 -7 5 -4 10 7 11 2 14 -8 4z m-104 -42 c-5 -11 -7
-11 -14 0 -7 10 -9 10 -9 -2 0 -12 -2 -12 -9 -2 -7 11 -9 11 -14 -1 -7 -17
-31 -17 -49 1 -9 9 -9 12 0 12 7 0 12 -6 12 -12 0 -9 4 -8 10 2 9 13 10 13 10
0 1 -13 2 -13 10 1 11 19 60 21 53 1z m-112 -19 c0 -4 -12 -8 -25 -9 -17 0
-23 3 -19 13 3 8 12 12 19 9 8 -3 14 0 15 7 0 9 2 9 6 0 2 -7 4 -16 4 -20z"/>
<path d="M4065 1451 c-3 -5 -2 -12 3 -15 5 -3 9 1 9 9 0 17 -3 19 -12 6z"/>
<path d="M3096 1433 c-1 -1 -23 -3 -49 -4 -26 -2 -47 -6 -47 -10 0 -4 -3 -16
-6 -26 -5 -16 -4 -16 11 2 12 16 28 20 71 20 41 0 51 -2 40 -10 -8 -6 -11 -16
-7 -23 4 -7 12 1 20 20 10 22 16 27 22 17 7 -11 9 -11 9 1 0 13 1 13 10 0 8
-13 10 -13 10 2 0 14 -8 17 -41 15 -22 -1 -42 -3 -43 -4z"/>
<path d="M3711 1427 c-16 -20 18 -50 39 -36 13 9 12 10 -2 6 -22 -8 -42 15
-26 31 7 7 9 12 6 12 -3 0 -11 -6 -17 -13z"/>
<path d="M3769 1427 c6 -8 7 -18 3 -22 -4 -5 -1 -5 6 -1 10 6 10 11 1 22 -6 8
-14 14 -16 14 -3 0 0 -6 6 -13z"/>
<path d="M3935 1431 c-3 -5 -2 -12 3 -15 5 -3 9 1 9 9 0 17 -3 19 -12 6z"/>
<path d="M2974 1413 c-4 -10 -6 -21 -6 -25 3 -13 -5 -9 -19 9 -8 10 -9 14 -2
10 6 -4 14 -3 18 3 4 6 -9 10 -34 10 -23 0 -41 -5 -41 -11 0 -5 5 -7 12 -3 7
5 8 3 2 -7 -11 -19 -13 -59 -2 -59 4 0 9 6 9 13 1 6 2 17 4 22 1 6 3 16 3 24
2 11 6 10 17 -5 8 -10 15 -23 15 -28 0 -6 -6 -1 -14 9 -13 18 -13 17 -13 -7 0
-20 4 -24 18 -21 11 3 19 10 19 17 0 6 4 6 9 -3 6 -9 14 -10 27 -3 11 5 27 8
37 7 10 -2 17 3 17 12 0 13 -2 14 -17 2 -17 -13 -17 -12 -4 4 13 16 17 17 25
5 15 -20 45 -18 43 2 -2 27 -67 20 -94 -10 l-22 -25 5 38 c5 40 1 47 -12 20z"/>
<path d="M3610 1421 c0 -7 -5 -9 -10 -6 -6 4 -10 3 -9 -2 3 -20 -2 -34 -11
-28 -5 3 -8 11 -6 18 1 7 1 8 -2 3 -2 -4 -9 -2 -14 5 -7 12 -9 11 -7 -1 3 -30
-1 -51 -10 -46 -4 3 -7 17 -6 31 2 17 0 23 -8 18 -7 -4 -25 -8 -42 -10 -16 -1
-46 -5 -65 -8 -19 -3 -46 -7 -60 -9 -14 -2 -26 -5 -27 -6 -2 -1 -13 -3 -25 -4
-14 -1 -24 -9 -27 -21 -2 -11 -10 -29 -18 -40 l-15 -20 6 20 c6 20 6 20 -9 1
-11 -14 -15 -16 -15 -5 0 12 -2 12 -10 -1 -9 -13 -10 -13 -10 0 0 13 -2 13 -9
1 -10 -15 -2 -48 8 -34 3 5 14 9 24 10 33 1 37 3 37 17 0 8 4 17 9 20 5 4 7
-4 5 -16 -4 -21 -4 -22 5 -3 l10 20 1 -20 1 -20 9 20 c6 13 9 15 9 5 1 -13 2
-13 11 0 9 13 10 13 10 0 0 -10 3 -11 8 -4 4 6 20 10 35 9 17 -1 31 4 34 12 5
12 7 12 14 1 5 -7 9 -8 9 -2 0 6 16 10 36 9 28 -2 38 2 41 16 3 10 9 16 14 13
5 -3 6 -11 2 -17 -5 -9 -3 -9 8 -1 8 6 31 10 51 9 21 -1 36 1 33 3 -3 3 0 11
6 18 7 8 7 14 -1 19 -10 6 -11 5 -14 -15 0 -5 -4 -10 -8 -10 -5 0 -11 0 -14 0
-4 0 1 12 11 26 9 14 14 28 11 32 -3 3 -6 0 -6 -7z m-80 -27 c0 -1 -7 -15 -16
-30 l-16 -29 4 26 c3 15 0 26 -7 26 -7 0 -10 -11 -8 -26 4 -25 3 -25 -11 4 -8
17 -15 25 -15 18 -1 -6 -10 -10 -21 -8 -11 2 -19 1 -18 -3 1 -4 -1 -16 -5 -27
-6 -18 -15 -21 -65 -20 -53 0 -57 2 -59 25 l-1 25 5 -25 6 -25 8 25 7 25 2
-25 2 -25 7 25 c4 16 15 25 31 27 62 6 91 11 95 15 4 3 75 6 75 2z m49 -17 c8
-10 7 -14 -4 -14 -8 0 -15 6 -15 14 0 7 2 13 4 13 2 0 9 -6 15 -13z m-116 -16
c4 10 6 9 6 -3 1 -11 -6 -16 -19 -15 -21 1 -25 9 -13 20 4 4 10 2 14 -4 5 -8
8 -7 12 2z"/>
<path d="M3402 1360 c0 -14 2 -19 5 -12 2 6 2 18 0 25 -3 6 -5 1 -5 -13z"/>
<path d="M3342 1350 c0 -14 2 -19 5 -12 2 6 2 18 0 25 -3 6 -5 1 -5 -13z"/>
<path d="M3362 1350 c0 -14 2 -19 5 -12 2 6 2 18 0 25 -3 6 -5 1 -5 -13z"/>
<path d="M3382 1350 c0 -14 2 -19 5 -12 2 6 2 18 0 25 -3 6 -5 1 -5 -13z"/>
<path d="M3637 1423 c-4 -3 -2 -12 4 -19 6 -8 8 -22 5 -31 -6 -14 -4 -15 5 -6
7 7 9 19 4 30 -5 10 -7 21 -7 26 2 9 -3 9 -11 0z"/>
<path d="M3806 1422 c-2 -4 -1 -14 4 -22 7 -11 9 -9 7 8 -1 24 -3 26 -11 14z"/>
<path d="M2794 1410 c-58 -5 -60 -6 -59 -33 1 -15 -1 -25 -4 -21 -3 3 -6 15
-6 27 0 11 -6 22 -14 25 -8 3 -11 0 -7 -6 3 -6 2 -14 -4 -17 -6 -4 -9 -1 -8 6
5 23 -171 18 -242 -7 -33 -11 -57 -24 -53 -29 5 -4 3 -5 -3 -2 -10 6 -181 -46
-192 -58 -2 -2 29 -2 70 0 40 3 102 5 138 5 35 1 71 7 79 13 9 7 12 8 8 1 -9
-15 133 -6 152 10 12 9 13 8 7 -2 -7 -11 -4 -12 10 -5 11 5 26 9 34 8 8 -1 21
4 29 9 11 8 13 8 7 -1 -4 -7 -2 -13 3 -13 6 0 11 6 11 13 0 8 4 7 10 -3 6 -9
10 -11 10 -3 0 7 7 10 14 7 12 -4 14 1 10 22 -3 16 -2 26 1 22 4 -3 8 -14 9
-25 2 -11 12 -18 27 -19 39 -1 56 12 53 43 -3 40 -3 40 -16 39 -7 -1 -40 -3
-74 -6z m72 -34 c-2 -38 -12 -39 -12 -1 0 18 3 32 7 30 3 -3 5 -15 5 -29z
m-30 -12 c-1 -8 -6 -17 -12 -21 -5 -4 -6 -4 -2 1 4 5 3 14 -2 21 -7 8 -5 12 4
12 8 0 13 -6 12 -13z"/>
<path d="M3675 1399 c-4 -6 -4 -13 -1 -16 3 -4 6 -1 6 6 0 7 5 9 10 6 6 -4 8
-10 6 -14 -3 -4 1 -8 9 -8 13 0 12 4 -2 19 -19 21 -20 21 -28 7z"/>
<path d="M3241 1364 c-1 -7 -14 -10 -31 -9 -17 1 -33 -1 -35 -6 -3 -4 -12 -6
-19 -3 -20 8 -27 -21 -10 -43 13 -17 14 -17 11 7 -2 14 -2 19 0 12 3 -7 9 -10
14 -6 5 3 6 10 3 16 -4 7 -2 8 5 4 9 -6 9 -11 1 -21 -9 -10 -9 -19 0 -32 7
-11 10 -12 7 -3 -7 25 11 49 34 45 21 -4 35 15 26 37 -3 8 -6 9 -6 2z m-6 -25
c3 -3 -6 -5 -19 -5 -14 1 -28 4 -31 7 -3 3 6 5 19 5 14 -1 28 -4 31 -7z"/>
<path d="M3262 1350 c0 -14 2 -19 5 -12 2 6 2 18 0 25 -3 6 -5 1 -5 -13z"/>
<path d="M3120 1342 c0 -4 -10 -8 -22 -9 -68 -1 -88 -4 -88 -11 0 -4 14 -7 30
-7 17 -1 30 4 30 9 0 5 7 1 16 -10 13 -15 15 -16 10 -2 -3 12 -1 15 9 11 13
-4 13 -8 0 -26 -8 -12 -15 -28 -15 -37 1 -8 7 -3 16 13 8 15 17 27 20 27 2 0
0 -9 -6 -20 -9 -18 -8 -19 12 -16 13 3 26 5 31 5 4 1 7 6 7 12 0 5 -4 8 -9 4
-13 -7 -41 34 -34 51 3 8 2 14 -1 14 -3 0 -6 -4 -6 -8z"/>
<path d="M2987 1316 c-3 -8 -2 -18 3 -21 13 -8 20 9 11 24 -6 10 -10 9 -14 -3z"/>
<path d="M2937 1313 c-2 -1 -19 -3 -40 -5 -20 -1 -37 -5 -37 -8 0 -3 -17 -5
-37 -6 -95 -2 -104 -4 -97 -16 6 -10 5 -10 -8 -1 -8 7 -17 11 -19 8 -9 -8
-267 -23 -468 -26 l-143 -2 -157 -58 c-231 -85 -228 -80 -46 -74 204 6 315 15
339 27 14 8 17 7 11 -3 -5 -8 -4 -10 3 -5 6 4 37 9 69 12 32 3 72 7 88 9 17 2
64 6 105 10 41 4 86 8 100 10 14 2 40 3 58 4 22 1 31 5 26 13 -5 7 -3 8 7 3
12 -8 43 -8 109 0 14 2 33 4 43 4 12 1 16 6 11 14 -6 10 -4 10 7 0 17 -17 39
-16 39 0 0 21 37 51 45 37 4 -6 4 -14 1 -17 -3 -4 -6 -1 -6 6 0 7 -5 9 -10 6
-6 -4 -7 -11 -4 -17 4 -7 2 -8 -4 -4 -7 4 -12 2 -12 -4 0 -7 7 -9 16 -6 9 3
24 6 35 6 10 0 19 5 19 11 0 5 -5 7 -10 4 -6 -4 -10 -3 -9 2 1 4 0 10 -1 13
-6 16 -7 41 -2 35 4 -4 7 -10 7 -13 0 -4 7 -17 16 -30 14 -20 17 -21 23 -7 8
23 8 25 -6 23 -7 -2 -13 3 -14 10 -1 6 -3 15 -4 20 -1 4 -2 10 -1 14 0 6 -36
7 -42 1z m-21 -29 c-1 -7 -10 -21 -19 -32 -9 -10 -14 -22 -10 -27 5 -4 2 -5
-5 -1 -11 6 -9 13 7 30 14 15 18 25 11 32 -7 7 -6 11 4 11 7 0 13 -6 12 -13z
m-103 -9 c-3 -9 -8 -14 -10 -11 -3 3 -2 9 2 15 9 16 15 13 8 -4z m71 6 c3 -4
-4 -17 -17 -27 -22 -19 -22 -19 -4 2 9 11 14 24 10 27 -3 4 -4 7 0 7 3 0 8 -4
11 -9z"/>
<path d="M3004 1289 c-14 -15 -15 -20 -4 -17 9 2 14 -4 14 -14 -2 -24 5 -23
28 7 11 14 25 25 31 24 8 0 8 -2 -1 -6 -6 -2 -9 -10 -6 -15 4 -6 2 -8 -4 -4
-6 3 -13 2 -17 -4 -3 -5 3 -10 14 -10 12 0 22 7 23 15 0 8 1 21 2 28 2 19 -27
15 -45 -7 -13 -16 -16 -16 -16 -3 0 9 4 14 9 11 4 -3 8 0 8 5 0 17 -15 13 -36
-10z"/>
<path d="M2568 1153 c7 -3 16 -2 19 1 4 3 -2 6 -13 5 -11 0 -14 -3 -6 -6z"/>
<path d="M2465 1140 l-30 -8 27 -1 c15 0 30 4 33 9 3 6 5 9 3 9 -2 -1 -16 -5
-33 -9z"/>
<path d="M2419 1136 c-5 -4 -43 -10 -211 -30 -174 -21 -260 -26 -448 -27 -143
-1 -177 -5 -255 -26 -87 -25 -273 -96 -338 -130 l-32 -17 25 -7 c14 -4 78 -7
142 -8 113 -1 128 2 395 68 153 37 321 78 373 90 52 12 111 25 130 30 19 5 79
17 133 27 53 10 97 22 97 26 0 9 -4 10 -11 4z"/>
<path d="M6850 2795 l0 -105 34 0 c73 0 116 80 82 152 -18 37 -51 58 -91 58
-25 0 -25 0 -25 -105z"/>
<path d="M8729 2818 c-6 -24 -19 -69 -29 -100 -10 -31 -15 -60 -12 -63 8 -7
122 -6 122 1 0 13 -61 204 -65 204 -2 0 -9 -19 -16 -42z"/>
<path d="M6267 2173 c-4 -3 -7 -48 -7 -100 0 -92 0 -93 25 -93 88 0 130 107
66 171 -27 27 -69 38 -84 22z"/>
<path d="M6260 1869 c0 -112 8 -129 60 -129 59 0 91 33 98 98 4 49 2 54 -31
87 -30 30 -42 35 -81 35 l-46 0 0 -91z"/>
<path d="M6637 2041 c-15 -54 -27 -101 -27 -105 0 -3 27 -6 60 -6 46 0 60 3
60 14 0 19 -50 179 -59 188 -3 4 -19 -37 -34 -91z"/>
<path d="M8949 2098 c-6 -24 -19 -69 -29 -100 -10 -31 -15 -60 -12 -63 8 -7
122 -6 122 1 0 13 -61 204 -65 204 -2 0 -9 -19 -16 -42z"/>
<path d="M7146 1327 c-14 -51 -26 -98 -26 -105 0 -8 20 -12 60 -12 43 0 60 4
60 13 0 14 -57 187 -63 194 -2 2 -16 -38 -31 -90z"/>
</g>
</svg>
